<svg width="8" height="16" viewBox="0 0 8 16" fill="none" xmlns="http://www.w3.org/2000/svg">
<g clip-path="url(#clip0_317_27)">
<path d="M7.94492 11.3262L6.04814 9.42942C6.01221 9.39349 5.96533 9.37474 5.91534 9.37474H5.7091C6.20126 8.80445 6.49968 8.0623 6.49968 7.24984C6.49968 5.45462 5.04507 4 3.24984 4C1.45462 4 0 5.45462 0 7.24984C0 9.04507 1.45462 10.4997 3.24984 10.4997C4.0623 10.4997 4.80445 10.2013 5.37474 9.7091V9.91534C5.37474 9.96533 5.39505 10.0122 5.42942 10.0481L7.3262 11.9449C7.39964 12.0184 7.51838 12.0184 7.59182 11.9449L7.94492 11.5918C8.01836 11.5184 8.01836 11.3996 7.94492 11.3262ZM3.24984 9.74972C1.86866 9.74972 0.749963 8.63102 0.749963 7.24984C0.749963 5.86866 1.86866 4.74996 3.24984 4.74996C4.63102 4.74996 5.74972 5.86866 5.74972 7.24984C5.74972 8.63102 4.63102 9.74972 3.24984 9.74972Z" fill="#666666"/>
</g>
<defs>
<clipPath id="clip0_317_27">
<rect width="8" height="16" fill="white"/>
</clipPath>
</defs>
</svg>
