<svg width="87" height="87" viewBox="0 0 87 87" fill="none" xmlns="http://www.w3.org/2000/svg">
<g opacity="0.1">
<path d="M53.8571 43.5C53.8571 49.2201 49.2201 53.8571 43.5 53.8571C37.7799 53.8571 33.1429 49.2201 33.1429 43.5C33.1429 37.7799 37.7799 33.1429 43.5 33.1429C49.2201 33.1429 53.8571 37.7799 53.8571 43.5Z" fill="white"/>
<path fill-rule="evenodd" clip-rule="evenodd" d="M43.5 87C65.4145 87 83.5441 70.795 86.5595 49.7143L61.0821 49.7143C58.5228 56.9551 51.6172 62.1429 43.5 62.1429C35.3828 62.1429 28.4772 56.9551 25.918 49.7143L0.440524 49.7143C3.45588 70.795 21.5855 87 43.5 87ZM25.918 37.2857L0.440524 37.2857C3.45588 16.205 21.5855 0 43.5 0C65.4145 0 83.5441 16.205 86.5595 37.2857L61.0821 37.2857C58.5228 30.0449 51.6172 24.8571 43.5 24.8571C35.3828 24.8571 28.4772 30.0449 25.918 37.2857ZM53.8571 43.5C53.8571 49.2201 49.2201 53.8571 43.5 53.8571C37.7799 53.8571 33.1429 49.2201 33.1429 43.5C33.1429 37.7799 37.7799 33.1429 43.5 33.1429C49.2201 33.1429 53.8571 37.7799 53.8571 43.5Z" fill="white"/>
</g>
</svg>
